<?xml version="1.0" encoding="UTF-8"?>
<svg xmlns="http://www.w3.org/2000/svg" version="1.1" viewBox="0 0 252.28 144.57">
  <!-- Generator: Adobe Illustrator 28.7.1, SVG Export Plug-In . SVG Version: 1.2.0 Build 142)  -->
  <g>
    <g id="Livello_2">
      <g>
        <path d="M74.39,8.05c-.03,2.83.09,7.33.35,13.49.23,5.98.32,10.48.26,13.49-.18,10.22-2.06,17.95-5.65,23.21-3.18,4.67-7.84,8.1-13.97,10.29-6.6,2.36-13.55,2.73-20.84,1.09-1.99-.44-4.32-1.46-7.01-3.07-3.09-1.84-4.79-3.44-5.08-4.82-.41-2.07.15-4.01,1.66-5.82,1.75-2.1,2.67-3.81,2.76-5.12,6.25,2.86,10.26,4.39,12.04,4.6.38-5.52.53-13.17.44-22.95-.18-14.68-.25-22.67-.22-23.95-.03-.41.04-.63.22-.66.32.03,12,.1,35.03.22ZM67.6,56.7c3.21-4.88,4.88-11.9,4.99-21.06.06-2.36-.01-6.47-.22-12.3-.2-5.49-.26-9.78-.18-12.87-17.49-.03-27.63-.1-30.43-.22-.18.03-.25.25-.22.66-.03,2.83-.03,10.73,0,23.69.06,9.69-.01,17.5-.22,23.43-3.24-.12-7.62-1.43-13.14-3.94-.15.9-.83,1.96-2.06,3.15-1.08,1.08-1.56,2.22-1.45,3.42.15,1.75,2.63,3.65,7.44,5.69,2.51,1.08,5.88,1.71,10.12,1.88,4.09.2,7.58-.06,10.47-.79,2.89-.73,5.81-2.22,8.76-4.47,2.66-2.01,4.7-4.1,6.13-6.26ZM70.01,12.65c-.09,2.89-.03,6.9.18,12.04.18,5.43.25,9.25.22,11.47-.12,8.5-1.71,14.98-4.77,19.44-2.69,3.94-6.52,6.83-11.52,8.67-5.58,2.07-11.66,2.39-18.26.96-1.31-.29-2.92-.95-4.82-1.97-.09-.06-.41-.22-.96-.48-.53-.23-.95-.44-1.27-.61-1.02-.61-1.59-1.2-1.71-1.75-.15-.55.07-1.11.66-1.66.9-.93,1.42-1.47,1.53-1.62,5.43,2.48,10.25,3.43,14.45,2.85V13.08c-.03-.41.04-.63.22-.66,3.27.18,7.58.26,12.92.26,7.74-.03,12.12-.04,13.14-.04Z"/>
        <path d="M104.91,68.85c.1-3.52.15-13.63.15-30.32,0-.45.03-1.26.09-2.42.04-1.02.06-1.81.06-2.36-.06-1.73-.45-2.99-1.18-3.78.28-.02-3.37-.02-10.92,0-2.89,0-5.81.84-8.74,2.51-1.32.77-2.47,1.73-3.45,2.89-1.02,1.26-1.59,2.46-1.71,3.6-.14,1.52-.16,3.76-.06,6.73.14,4.27.21,6.91.21,7.91v15.23c4.55.24,8.93.24,13.17,0,.16-1.46.18-3.86.06-7.2-.1-3.15-.02-5.48.24-7,.26.02,1.04,0,2.36-.03,1-.02,1.74.04,2.21.18v13.9c1.14.28,3.65.32,7.53.15ZM91.62,31.45c1.22-.14,3.2-.12,5.93.06,2.56.16,4.52.14,5.87-.06.28,12.12.28,24.1,0,35.92-1.48.35-3,.35-4.58,0v-14.05c-.87-.14-2.1-.2-3.69-.18-2.13.04-3.4.05-3.84.03-.24,1.53-.32,3.82-.27,6.85.08,4.23.12,6.68.12,7.35-3.54.28-7,.28-10.36,0v-28.99c.41-1.52,1.81-3.01,4.19-4.49,2.28-1.42,4.49-2.23,6.61-2.45ZM98.71,49.78c.3-6.83.25-11.91-.15-15.23-3.94-.22-6.35.82-7.23,3.1-.51,1.32-.61,3.29-.3,5.9.37,3.01.47,5.09.3,6.23h7.38ZM92.8,48.31c0-.45-.08-1.86-.24-4.22-.1-1.79-.1-3.17,0-4.13.35-2.91,1.91-4.17,4.66-3.78.26,4.19.26,8.24,0,12.13h-4.43ZM95.76,46.68c-.02-.55-.02-2.09,0-4.6.04-1.91,0-3.38-.15-4.43-1.08.41-1.6,1.66-1.56,3.75.02.26.09,1.16.21,2.72.08,1.1.09,1.96.03,2.57.71.06,1.2.06,1.48,0Z"/>
        <path d="M138.65,68.91c.18-.67.28-1.72.3-3.16.02-1.65.07-2.76.15-3.31-5.82.24-11.16.24-16,0,1.28-1.65,3.09-3.84,5.43-6.55,3.13-3.62,5.04-5.84,5.73-6.67,2.22-2.68,3.4-4.25,3.54-4.72v-7.62c0-3.84-.1-6.19-.3-7.05-3.25.1-7.6.15-13.05.15-8.42-.02-12.94-.02-13.55,0-.14,2.07-.09,4.17.15,6.32.14,0,4.64.05,13.52.15-1.26,1.65-2.95,3.83-5.08,6.52-2.87,3.68-4.61,5.91-5.22,6.7-2.2,2.85-3.33,4.37-3.37,4.55v7.35c0,3.11.05,5.56.15,7.35,9.49.26,18.69.26,27.6,0ZM119.99,63.92c1.06-.02,4.02.03,8.88.15,3.54.1,6.42.05,8.62-.15-.02.18-.02.79,0,1.83.02.77-.03,1.33-.15,1.68-8.34.26-16.63.26-24.85,0-.1-.96-.15-3.02-.15-6.17v-6.46c.04-.12,1.32-1.78,3.84-4.99.94-1.24,2.86-3.76,5.76-7.56,2.4-3.13,4.3-5.56,5.7-7.29h-15.14c-.22-1.38-.27-2.56-.15-3.54,1.38,0,5.35,0,11.93.03,4.88.02,8.8-.04,11.75-.18.24,1.16.34,2.77.32,4.84-.04,3.03-.05,4.65-.03,4.87.06,1.52,0,2.58-.21,3.19-.18.57-.7,1.37-1.56,2.39-8.95,10.59-13.8,16.37-14.55,17.36Z"/>
        <path d="M173.04,68.91c.18-.67.28-1.72.3-3.16.02-1.65.07-2.76.15-3.31-5.82.24-11.16.24-16,0,1.28-1.65,3.09-3.84,5.43-6.55,3.13-3.62,5.04-5.84,5.73-6.67,2.22-2.68,3.4-4.25,3.54-4.72v-7.62c0-3.84-.1-6.19-.3-7.05-3.25.1-7.6.15-13.05.15-8.42-.02-12.94-.02-13.55,0-.14,2.07-.09,4.17.15,6.32.14,0,4.64.05,13.52.15-1.26,1.65-2.95,3.83-5.08,6.52-2.87,3.68-4.61,5.91-5.22,6.7-2.2,2.85-3.33,4.37-3.37,4.55v7.35c0,3.11.05,5.56.15,7.35,9.49.26,18.69.26,27.6,0ZM154.38,63.92c1.06-.02,4.02.03,8.88.15,3.54.1,6.42.05,8.62-.15-.02.18-.02.79,0,1.83.02.77-.03,1.33-.15,1.68-8.34.26-16.63.26-24.85,0-.1-.96-.15-3.02-.15-6.17v-6.46c.04-.12,1.32-1.78,3.84-4.99.94-1.24,2.86-3.76,5.76-7.56,2.4-3.13,4.3-5.56,5.7-7.29h-15.14c-.22-1.38-.27-2.56-.15-3.54,1.38,0,5.35,0,11.93.03,4.88.02,8.8-.04,11.75-.18.24,1.16.34,2.77.32,4.84-.04,3.03-.05,4.65-.03,4.87.06,1.52,0,2.58-.21,3.19-.18.57-.7,1.37-1.56,2.39-8.95,10.59-13.8,16.37-14.55,17.36Z"/>
        <path d="M237.28,90.18c.24-5.05.35-11.51.33-19.38-.04-11.52-.05-18.1-.03-19.75-.48.18-2.89.41-7.21.69v11.6c-1.76-1.74-4.59-4.67-8.48-8.78-1.68-1.78-2.67-2.72-2.98-2.83-.62-.2-1.79-.25-3.52-.15-1.56.1-2.74-.08-3.55-.54v37.15c.64.24,1.92.4,3.85.48,1.76.08,2.98.3,3.64.66v-16.38c2.14,2.08,6.05,6.22,11.72,12.41,1.92,2.1,2.84,3.11,2.73,3.01,1.06,1,2.22,1.6,3.49,1.8ZM236.16,53.04c-.02,1.34-.02,7.28,0,17.82.02,7.23-.03,13.01-.15,17.34-2.3-2.08-5.34-5.21-9.11-9.38-4.09-4.55-7.08-7.73-8.99-9.56v18.09c-.44-.1-1.22-.14-2.34-.12-1.08,0-1.85-.05-2.31-.15v-34.05c.5.16,1.28.17,2.34.03,1.1-.16,1.92-.17,2.46-.03.5.12,1.12.59,1.86,1.41.18.22.47.57.87,1.05.36.44.62.74.78.9,2.95,3.15,6.34,6.63,10.19,10.46v-13.7c.36-.06,1.06-.07,2.1-.03,1,.04,1.76.01,2.28-.09Z"/>
      </g>
      <g>
        <path d="M62.89,78.75c-.03,2.62.08,6.79.32,12.5.22,5.55.3,9.71.24,12.5-.16,9.47-1.91,16.64-5.24,21.51-2.95,4.33-7.26,7.51-12.95,9.54-6.11,2.19-12.55,2.53-19.32,1.01-1.84-.41-4-1.35-6.49-2.84-2.87-1.7-4.44-3.19-4.71-4.46-.38-1.92.14-3.72,1.54-5.4,1.62-1.95,2.48-3.53,2.56-4.75,5.79,2.65,9.51,4.07,11.16,4.26.35-5.11.49-12.2.41-21.27-.16-13.61-.23-21.01-.2-22.2-.03-.38.04-.58.2-.61.3.03,11.12.09,32.47.2ZM56.6,123.84c2.98-4.52,4.52-11.02,4.63-19.52.05-2.19-.01-5.99-.2-11.4-.19-5.09-.24-9.06-.16-11.93-16.21-.03-25.61-.09-28.2-.2-.16.03-.23.23-.2.61-.03,2.62-.03,9.94,0,21.96.05,8.98-.01,16.22-.2,21.71-3-.11-7.06-1.33-12.17-3.65-.14.84-.77,1.81-1.91,2.92-1,1-1.45,2.06-1.34,3.17.14,1.62,2.43,3.38,6.9,5.28,2.33,1,5.45,1.58,9.37,1.75,3.79.19,7.02-.05,9.7-.73s5.38-2.06,8.12-4.14c2.46-1.87,4.36-3.8,5.68-5.8ZM58.83,83.01c-.08,2.68-.03,6.4.16,11.16.16,5.03.23,8.58.2,10.63-.11,7.87-1.58,13.88-4.42,18.02-2.49,3.65-6.05,6.33-10.67,8.04-5.17,1.92-10.81,2.22-16.92.89-1.22-.27-2.71-.88-4.46-1.83-.08-.05-.38-.2-.89-.45-.49-.22-.88-.41-1.18-.57-.95-.57-1.47-1.11-1.58-1.62-.14-.51.07-1.03.61-1.54.84-.87,1.31-1.37,1.42-1.5,5.03,2.3,9.5,3.18,13.39,2.64v-43.46c-.03-.38.04-.58.2-.61,3.03.16,7.02.24,11.97.24,7.17-.03,11.23-.04,12.17-.04Z"/>
        <path d="M105.32,124.58c.94-2.22,1.47-5.06,1.56-8.5.1-3.48-.28-6.36-1.12-8.62-1.42-3.8-3.99-6.74-7.73-8.83-3.78-2.11-8.12-2.96-13.02-2.57-6.2.49-10.91,3.13-14.14,7.91-.94,1.46-1.76,3.77-2.45,6.94-1.18,5.67-.48,10.76,2.1,15.29,2.52,4.39,6.2,7.21,11.04,8.47,3.6.94,7.47.84,11.6-.32,4.13-1.18,7.27-3.04,9.42-5.58,1.32-1.55,2.23-2.95,2.75-4.19ZM85.3,97.51c4.57-.33,8.6.49,12.1,2.48,3.42,1.95,5.78,4.67,7.05,8.18,1.12,3.11,1.32,6.74.59,10.89-.67,3.96-1.88,6.91-3.63,8.86-2.77,3.11-6.69,4.98-11.75,5.61-5.14.65-9.52-.27-13.17-2.75-1.99-1.34-3.64-3.19-4.96-5.55-1.3-2.34-2.05-4.76-2.24-7.26-.39-4.96.52-9.28,2.75-12.96,1.22-2.07,2.92-3.75,5.11-5.05,2.36-1.42,5.08-2.23,8.15-2.45ZM100.12,122.57c1.22-2.32,1.78-4.88,1.68-7.67-.1-2.68-.77-5.14-2.01-7.38-1.3-2.34-2.99-4.06-5.08-5.17-2.3-1.22-4.82-1.53-7.56-.94-.3,8.25-.34,17.6-.15,28.07,2.79.39,5.41-.1,7.85-1.48,2.3-1.28,4.05-3.09,5.25-5.43ZM88.61,102.71c2.38-.24,4.51.28,6.38,1.53,1.71,1.14,3.04,2.77,3.98,4.9.92,2.05,1.37,4.23,1.33,6.55-.04,2.38-.57,4.53-1.59,6.43-.96,1.77-2.32,3.2-4.07,4.28-1.85,1.12-3.91,1.71-6.17,1.77v-25.06c-.02-.28.03-.41.15-.41Z"/>
        <path d="M139.73,114.57c-.73-.08-1.65-.24-2.77-.47-1.34-.3-2.23-.48-2.69-.56,2.5-2.81,3.77-5.99,3.81-9.53.04-3.94-1.72-6.47-5.28-7.62-1.22-.39-3.83-.49-7.82-.3-2.62.12-6.86.17-12.72.15v39.02c1.16-.14,3.43-.19,6.82-.15,3.11.06,5.37-.04,6.79-.3-.02-1.42-.02-3.74,0-6.97v-6.64s.46-.48,1.33-1.39c.59-.61,1.18-.93,1.77-.97.79-.06,1.77.38,2.95,1.33.1,9.92.15,14.85.15,14.79,2.52.24,5.08.24,7.67,0v-20.4ZM131.17,114.72c1.1-.04,2.33.11,3.69.44,1.93.45,3.06.7,3.39.74v17.74h-4.72c-.12-1.63-.16-4.11-.12-7.44.04-3.48.03-5.69-.03-6.61-.65-.77-1.45-1.38-2.39-1.83-1.08-.49-2.06-.62-2.92-.38-.55.16-1.24.58-2.07,1.27-.92.79-1.47,1.5-1.62,2.13-.3,1.14-.32,3.14-.09,5.99.26,3.11.29,5.35.09,6.73-1.28.12-3.03.17-5.25.15-3.05-.02-4.85-.02-5.4,0v-35.92c5.12.02,8.91-.03,11.39-.15,3.58-.18,5.89-.13,6.94.15,1.22.33,2.28.97,3.19,1.92.96,1.06,1.48,2.24,1.53,3.54.14,3.17-1.73,7.02-5.61,11.54ZM124.38,115.46c1.91-1.1,3.72-2.75,5.43-4.93,2.22-2.81,2.97-5.26,2.24-7.35-.35-1.02-1.29-1.78-2.8-2.27-1.46-.45-2.98-.53-4.58-.24-.28,1.69-.39,4.09-.35,7.2.06,4.19.08,6.72.06,7.59ZM126.01,102c2.05-.18,3.4.2,4.07,1.12.57.77.63,1.86.18,3.28-.39,1.2-1.06,2.42-2.01,3.66-.89,1.18-1.68,1.95-2.39,2.3.02-.61,0-2.36-.03-5.25-.02-2.16.04-3.87.18-5.11ZM127.63,108.23c.08-.16.26-.45.53-.89.24-.39.41-.72.53-.97.39-.77.53-1.49.41-2.15-.45-.31-.99-.51-1.62-.59.02.28,0,1.07-.03,2.39-.02.98.04,1.72.18,2.21Z"/>
        <path d="M172.74,126.23c2.3-4.57,2.94-9.49,1.92-14.76-1-5.23-3.31-9.11-6.91-11.63-3.88-2.7-9.2-3.92-15.97-3.66-.28.02-1.1,0-2.48-.06-1.08-.06-1.87-.04-2.36.06-.98.22-1.51,1.43-1.56,3.63-.02.69,0,1.64.09,2.86.1,1.44.16,2.3.18,2.6.06,2.83.06,8.09,0,15.76-.06,6.61,0,11.32.15,14.11,14.66.57,23.64-2.4,26.95-8.91ZM173.59,114.78c.1,4.57-.73,8.33-2.48,11.31-1.77,3.01-4.91,5.11-9.42,6.29-3.54.94-8.41,1.39-14.61,1.33-.04-21.71-.09-33.57-.15-35.6-.04-.12,0-.25.12-.38.12-.12.18-.09.18.09,9.17.3,13.57.39,13.19.3,3.84,1,6.95,2.96,9.33,5.87,2.5,3.05,3.78,6.65,3.84,10.8ZM157.65,129.6c3.9-.04,6.98-1.57,9.24-4.6,2.01-2.72,2.99-6.02,2.95-9.92-.06-3.86-1.11-7.07-3.16-9.65-2.28-2.83-5.29-4.1-9.03-3.81-.22,6.16-.22,15.49,0,27.98ZM159.25,103.06c2.95.22,5.26,1.59,6.94,4.13,1.5,2.3,2.22,5.07,2.18,8.29-.06,3.21-.87,5.96-2.42,8.27-1.71,2.52-3.99,3.88-6.85,4.07-.12-3.13-.17-7.15-.15-12.07v-12.25c0-.22.1-.36.3-.44Z"/>
        <path d="M206.12,134.97c.1-3.52.15-13.63.15-30.32,0-.45.03-1.26.09-2.42.04-1.02.06-1.81.06-2.36-.06-1.73-.45-2.99-1.18-3.78.28-.02-3.37-.02-10.92,0-2.89,0-5.81.84-8.74,2.51-1.32.77-2.47,1.73-3.45,2.89-1.02,1.26-1.59,2.46-1.71,3.6-.14,1.52-.16,3.76-.06,6.73.14,4.27.21,6.91.21,7.91v15.23c4.55.24,8.93.24,13.17,0,.16-1.46.18-3.86.06-7.2-.1-3.15-.02-5.48.24-7,.26.02,1.04,0,2.36-.03,1-.02,1.74.04,2.21.18v13.9c1.14.28,3.65.32,7.53.15ZM192.84,97.57c1.22-.14,3.2-.12,5.93.06,2.56.16,4.52.14,5.87-.06.28,12.12.28,24.1,0,35.92-1.48.35-3,.35-4.58,0v-14.05c-.87-.14-2.1-.2-3.69-.18-2.13.04-3.4.05-3.84.03-.24,1.53-.32,3.82-.27,6.85.08,4.23.12,6.68.12,7.35-3.54.28-7,.28-10.36,0v-28.99c.41-1.52,1.81-3.01,4.19-4.49,2.28-1.42,4.49-2.23,6.61-2.45ZM199.92,115.9c.3-6.83.25-11.91-.15-15.23-3.94-.22-6.35.82-7.23,3.1-.51,1.32-.61,3.29-.3,5.9.37,3.01.47,5.09.3,6.23h7.38ZM194.02,114.43c0-.45-.08-1.86-.24-4.22-.1-1.79-.1-3.17,0-4.13.35-2.91,1.91-4.17,4.66-3.78.26,4.19.26,8.24,0,12.13h-4.43ZM196.97,112.8c-.02-.55-.02-2.09,0-4.6.04-1.91,0-3.38-.15-4.43-1.08.41-1.6,1.66-1.56,3.75.02.26.09,1.16.21,2.72.08,1.1.09,1.96.03,2.57.71.06,1.2.06,1.48,0Z"/>
        <path d="M237.32,134.79c.24-4.96.34-11.31.32-19.04-.04-11.32-.05-17.78-.03-19.39-.47.18-2.83.4-7.08.68v11.39c-1.73-1.71-4.51-4.59-8.32-8.62-1.65-1.75-2.63-2.68-2.92-2.77-.61-.2-1.76-.25-3.45-.15-1.53.1-2.7-.08-3.48-.53v36.48c.63.24,1.89.39,3.78.47,1.73.08,2.92.3,3.57.65v-16.09c2.11,2.05,5.94,6.11,11.51,12.19,1.89,2.07,2.78,3.05,2.69,2.95,1.04.98,2.18,1.57,3.42,1.77ZM236.23,98.31c-.02,1.32-.02,7.15,0,17.5.02,7.1-.03,12.78-.15,17.03-2.26-2.05-5.24-5.12-8.94-9.21-4.01-4.47-6.96-7.6-8.83-9.39v17.77c-.43-.1-1.2-.14-2.3-.12-1.06,0-1.82-.05-2.27-.15v-33.44c.49.16,1.26.17,2.3.03,1.08-.16,1.89-.17,2.42-.03.49.12,1.1.58,1.83,1.39.18.22.46.56.86,1.03.35.43.61.73.77.89,2.89,3.09,6.23,6.51,10.01,10.27v-13.46c.35-.06,1.04-.07,2.07-.03.98.04,1.73,0,2.24-.09Z"/>
      </g>
      <path d="M209.27,42.72c-.06-.14-.23-.19-.4-.12-.32.14-.65.27-.96.43-.4.21-.8.3-1.27.19.14-.1.27-.18.39-.28.11-.09.15-.21.09-.34-.06-.14-.18-.21-.34-.21-.12,0-.23.05-.33.11-.39.27-.8.53-.99,1-.18.44-.44.79-.95.9-.07.02-.14.07-.21.1-.07.03-.15.06-.22.07-.17.02-.26-.05-.21-.22.09-.29.05-.58.04-.87-.02-.66-.16-1.28-.49-1.86-.73-1.32-1.44-2.65-2.12-3.99-.28-.56-.29-.56-.89-.35-.15.05-.27.05-.41-.04-.15-.1-.06-.21-.05-.33.05-.58-.07-.69-.55-.78-.13-.02-.26-.05-.38-.08-.32-.07-.64-.14-.95-.23-.22-.06-.25-.11-.14-.29.09-.16.09-.31.09-.48,0-.26.03-.51.17-.73.13-.2.12-.41.04-.62.22-.13.28-.36.33-.58,0-.04.02-.08.02-.11-.03-.4.13-.81.01-1.21-.02-.07-.01-.15.04-.22.17-.25.18-.48.06-.75q-.12-.26.2-.35c-.23-.16-.39-.39-.65-.5-.12-.05-.23-.1-.22-.26,0-.1-.07-.22-.18-.23-.4-.04-.77-.27-1.18-.2-.2.03-.38-.02-.57-.1-.29-.12-.61-.15-.92-.11-.14.02-.27.02-.41,0-.37-.05-.76-.08-1.03.23-.35.39-.87.6-1.16,1.06-.03.05-.1.07-.16.11-.25.16-.29.21-.18.46.09.22.08.43.01.63-.16.49-.1.98,0,1.46.04.18.05.35-.02.52-.06.14-.09.29-.02.44.13.31.16.64.21.96.04.29-.04.52-.27.71-.14.12-.33.22-.31.45l-.9.66c-.08.02-.14.07-.2.12-.03.02-.05.05-.07.08h-.01s-1.57.53-1.57.53h0c-.83.18-1.63.44-2.44.67-.13.04-.25.09-.32.2-.09.13-.22.21-.33.32-.69.62-.99,1.14-.66,2.13.03.08.05.17.07.26.02.09,0,.19-.09.24-.4.23-.56.66-.86.97-.26.27-.47.57-.59.93-.02.05-.04.1-.08.13-.35.21-.67.49-1.1.55-.52.08-1,.25-1.44.54-.38.25-.72.54-1.14.74-.06.03-.12.07-.16.11-.35.43-.83.73-1.28,1.04-.25.18-.54.35-.71.59-.27.38-.54.76-.81,1.15-.24.35-.44.52-.88.47-.26-.03-.5,0-.73.09-.83.28-1.6.68-2.31,1.17-.41.29-.79.62-1.04,1.07-.14.25-.06.36.24.39.28.03.4-.16.58-.34.09.24.02.44-.01.63-.04.25.02.48.11.71.07.16.25.1.37.16.07.04.12.09.19.14.06.04.13.11.2.11.21.03.39.09.58.2.19.11.36,0,.4-.2.01-.06.02-.13,0-.19-.04-.2.05-.34.18-.48.32-.33.66-.64,1.14-.74.13-.03.25-.07.37-.13.53-.24,1.08-.45,1.43-.96.13-.18.34-.28.58-.14.12.07.25.07.38.01.45-.21.97-.18,1.41-.44.2-.12.43-.19.61-.36.17-.16.39-.29.61-.31.25-.02.42-.09.56-.29.07-.1.18-.15.28-.21.56-.34,1.19-.59,1.66-1.06.06-.06.16-.09.24-.13.68-.34,1.28-.78,1.83-1.29.1-.09.18-.22.36-.27.05.22,0,.41-.04.59-.04.19-.12.37-.13.56-.02.43-.23.77-.45,1.12-.44.68-.98,1.28-1.39,1.98-.2.34-.35.67-.39,1.05-.02.22-.11.42-.29.57-.31.26-.47.62-.56.98-.14.57-.05,1.13.3,1.63.1.15.2.3.3.45.24.36.39.4.69.07.44-.48,1-.83,1.39-1.38.27-.39.66-.71.93-1.12.1-.15.25-.23.41-.28.22-.07.49-.14.67.03.17.15.09.38.02.58-.16.47-.3.94-.52,1.39-.17.33-.31.67-.41,1.03-.13.49-.26.98-.37,1.47-.13.56-.15,1.11-.12,1.66.02.28.09.55.22.8.15.28.31.56.36.88.01.08.07.16.12.23.38.57.79,1.13.94,1.81.1.48.25.97.26,1.46.02.92.12,1.82.56,2.66.1.19.12.38.02.58-.06.12-.1.26-.15.39-.06.15-.05.29.01.44.14.37.12.41-.18.68-.27.24-.49.53-.55.89-.12.74-.26,1.48-.28,2.23-.03,1.03-.21,2.04-.27,3.07-.02.37-.01.74-.08,1.1-.3,1.47-.44,2.96-.45,4.46,0,.15,0,.3-.02.46-.04.37.02.46.39.52.08.01.16.01.23.03.37.07.77,0,1.12.11.12.04.24.06.36.07l-.03.25c-.11.02-.17.09-.2.23-.11.52-.03,1.04-.02,1.56l-.47.6-.2,1.6s.12.98,0,1.11c-.12.13.31,1.42.33,1.57.02.14,1.99,1.76,2.48,2.17,0,.04.04.07.11.09.38.12.75.04,1.1-.1.09-.03.13-.11.17-.2.18-.38.24-.76.19-1.18-.06-.54-.27-1.06-.29-1.6,0-.11-.1-.14-.16-.09-.02.02-.05.04-.08.05l.15-.72s.05-.35.07-.65c.03,0,.06.01.1.03.11.06.15-.02.15-.1,0-.26,0-.52,0-.82-.09.1-.06.22-.15.23-.1.02-.11-.09-.14-.15-.02-.05-.04-.1-.05-.15,0,0,0,0,0,0h0c-.02-.06-.04-.12-.08-.16-.2-.24.06-.42.07-.64,0-.13.2-.06.3-.09.03,0,.05,0,.08-.02.11-.05.13-.13.05-.21-.04-.05-.1-.08-.16-.11q-.45-.24-.5-.73c-.03.1-.07.2-.12.29l-.02-.87h0s.02-.11,0-.21c-.06-.3-.09-.6-.19-.9-.11-.35-.1-.39.26-.49.25-.07.36-.21.34-.44-.03-.39.03-.76.21-1.11.03-.05.03-.12.04-.19.03-.38.04-.76.08-1.14.06-.57-.07-1.14-.08-1.71-.01-.71.07-1.42-.06-2.13-.02-.09,0-.18,0-.27.09-.64.15-1.29.3-1.92.08-.36.2-.72.23-1.08.09-1.11.3-2.19.63-3.25.03-.1.05-.2.07-.3.16-.88.24-1.76.24-2.65,0-.3-.01-.61.04-.91.13-.79.34-1.56.55-2.33.05-.2.16-.3.37-.34.56-.1,1.08-.29,1.58-.55.67-.34,1.27-.79,1.89-1.21.36-.24.73-.47,1.12-.72,0,.44-.03.83-.2,1.21-.14.32-.25.67-.33,1.01-.12.48-.24.96-.44,1.42-.23.52-.33,1.08-.73,1.54-.25.29-.49.58-.83.76-.2.11-.34.24-.36.46-.01.15-.09.26-.2.36-.39.4-.79.81-1.12,1.26-.17.23-.18.28,0,.49.15.16.34.28.52.4,1.13.73,2.3,1.4,3.42,2.14.67.44,1.37.83,2.1,1.18.28.13.44.08.57-.17.02-.04.04-.09.05-.14.09-.3.1-.6-.08-.88-.28-.43-.46-.91-.67-1.37-.22-.5-.33-1.04-.49-1.56-.03-.1-.02-.2.03-.3.08-.17.17-.34.25-.51.2-.38.1-.71-.29-.9-.25-.13-.33-.36-.2-.6.05-.09.12-.16.16-.26.22-.59.71-.98,1.21-1.29.34-.21.52-.43.59-.79.05-.22.06-.45.19-.66.23-.36.44-.72.67-1.07.63-.97,1.18-1.98,1.66-3.02.3-.63.54-1.29.79-1.94.27-.69.41-1.39.39-2.12,0-.27-.1-.49-.26-.7-.28-.35-.55-.71-.81-1.07-.21-.29-.49-.39-.84-.38-.49,0-.95.11-1.41.27-.07.02-.15.07-.22.01-.07-.06-.02-.14,0-.21.24-.81.47-1.61.6-2.44.05-.3.17-.45.46-.52.49-.12.92-.34,1.24-.75.26-.34.62-.49,1.03-.56.21-.04.4-.11.56-.26.21-.19.43-.27.71-.15.16.07.33.04.49-.02.22-.09.27-.17.18-.38-.08-.19-.06-.33.08-.49.09-.1.14-.25.09-.36-.13-.27.04-.37.24-.45.22-.1.31-.26.28-.49-.02-.15-.08-.24-.26-.18-.09.03-.19.1-.3-.02.07-.15.21-.22.34-.29.28-.14.56-.27.83-.42.13-.07.21-.2.14-.36ZM177.62,48.2s.08.01.11.03l-.31.14c0-.13.08-.18.2-.18ZM192.39,88.57v-.02s0,.01,0,.02ZM192.39,88.54l-.22-.76c.16.23.22.49.22.76ZM199.84,52.51c-.61.25-1.2.55-1.76.89-.3.19-.6.23-.91.04-.07-.04-.14-.06-.21-.09-.28-.12-.28-.12-.21-.41.04-.15.01-.28-.04-.41-.14-.35-.11-.67.1-1.01.35-.56.34-.58.97-.41.22.06.49-.02.67.22.07.1.23-.06.37,0,.6.24,1.23.3,1.87.33.13,0,.26.02.44.13-.45.26-.83.55-1.27.73Z"/>
    </g>
  </g>
</svg>